<svg id="svg" version="1.1" xmlns="http://www.w3.org/2000/svg" xmlns:xlink="http://www.w3.org/1999/xlink" width="400" height="400" viewBox="0, 0, 400,400"><g id="svgg"><path id="path0" d="M195.600 34.600 C 195.600 35.748,195.451 36.000,194.774 36.000 C 193.288 36.000,192.400 36.753,192.400 38.014 C 192.400 39.003,192.239 39.200,191.429 39.200 C 190.186 39.200,189.200 40.186,189.200 41.429 C 189.200 42.266,189.013 42.400,187.843 42.400 C 186.409 42.400,186.000 42.896,186.000 44.633 C 186.000 45.472,185.814 45.600,184.600 45.600 C 183.233 45.600,183.200 45.638,183.200 47.200 L 183.200 48.800 181.600 48.800 C 180.043 48.800,180.000 48.837,180.000 50.176 C 180.000 51.477,179.919 51.558,178.500 51.676 C 177.086 51.793,176.993 51.885,176.877 53.277 C 176.762 54.665,176.665 54.762,175.277 54.877 C 173.889 54.993,173.793 55.089,173.677 56.477 C 173.562 57.865,173.465 57.962,172.077 58.077 C 170.685 58.193,170.593 58.286,170.476 59.700 C 170.355 61.158,170.308 61.200,168.776 61.200 C 167.204 61.200,167.200 61.204,167.200 62.800 C 167.200 64.362,167.167 64.400,165.800 64.400 C 164.467 64.400,164.400 64.467,164.400 65.800 C 164.400 67.167,164.362 67.200,162.800 67.200 C 161.920 67.200,161.200 67.360,161.200 67.557 C 161.200 67.753,160.753 68.025,160.207 68.162 C 159.661 68.299,158.937 68.949,158.597 69.606 C 158.186 70.400,157.675 70.800,157.070 70.800 C 155.920 70.800,155.200 71.508,155.200 72.640 C 155.200 73.327,154.872 73.598,153.711 73.873 C 152.511 74.157,152.153 74.469,151.860 75.491 C 151.565 76.520,151.263 76.780,150.248 76.879 C 149.124 76.988,148.988 77.147,148.877 78.477 C 148.762 79.865,148.665 79.962,147.277 80.077 C 145.885 80.193,145.793 80.286,145.676 81.700 C 145.555 83.158,145.508 83.200,143.976 83.200 C 142.442 83.200,142.400 83.237,142.400 84.600 C 142.400 85.867,142.293 86.000,141.280 86.000 C 140.664 86.000,139.944 86.216,139.680 86.480 C 139.416 86.744,139.200 87.464,139.200 88.080 C 139.200 89.040,139.040 89.200,138.080 89.200 C 136.659 89.200,136.000 89.859,136.000 91.280 C 136.000 92.293,135.867 92.400,134.600 92.400 C 133.233 92.400,133.200 92.438,133.200 94.000 L 133.200 95.600 131.600 95.600 L 130.000 95.600 130.000 97.200 L 130.000 98.800 128.400 98.800 C 126.843 98.800,126.800 98.837,126.800 100.176 C 126.800 101.477,126.719 101.558,125.300 101.676 C 123.886 101.793,123.793 101.885,123.677 103.277 C 123.562 104.665,123.465 104.762,122.077 104.877 C 120.685 104.993,120.593 105.086,120.476 106.500 C 120.364 107.855,120.241 108.000,119.208 108.000 C 117.796 108.000,115.753 109.131,115.290 110.169 C 115.100 110.595,114.242 111.140,113.384 111.381 C 112.134 111.732,111.752 112.071,111.461 113.088 C 111.167 114.113,110.861 114.380,109.871 114.479 C 108.875 114.577,108.586 114.835,108.323 115.855 C 108.060 116.877,107.743 117.159,106.615 117.371 C 105.425 117.594,105.194 117.825,104.971 119.015 C 104.763 120.122,104.525 120.400,103.784 120.400 C 102.582 120.400,101.600 121.402,101.600 122.629 C 101.600 123.320,101.378 123.600,100.833 123.600 C 99.311 123.600,98.800 124.057,98.800 125.419 C 98.800 126.670,98.708 126.759,97.300 126.876 C 95.881 126.993,95.793 127.081,95.676 128.500 C 95.555 129.958,95.508 130.000,93.976 130.000 C 92.404 130.000,92.400 130.004,92.400 131.600 L 92.400 133.200 90.800 133.200 C 89.243 133.200,89.200 133.237,89.200 134.576 C 89.200 135.877,89.119 135.958,87.700 136.076 C 86.281 136.193,86.193 136.281,86.076 137.700 C 85.958 139.119,85.877 139.200,84.576 139.200 C 83.237 139.200,83.200 139.243,83.200 140.800 L 83.200 142.400 81.600 142.400 L 80.000 142.400 80.000 144.000 L 80.000 145.600 78.400 145.600 L 76.800 145.600 76.800 147.200 L 76.800 148.800 75.200 148.800 C 74.138 148.800,73.600 148.978,73.600 149.330 C 73.600 150.221,71.883 151.520,70.326 151.807 C 68.736 152.101,67.769 152.929,67.536 154.197 C 67.440 154.720,66.980 155.064,66.195 155.197 C 65.280 155.352,64.914 155.692,64.632 156.646 C 64.344 157.625,63.958 157.968,62.832 158.246 C 61.597 158.551,61.383 158.779,61.275 159.900 C 61.160 161.089,61.033 161.200,59.779 161.200 C 58.490 161.200,58.394 161.295,58.154 162.800 C 57.916 164.288,57.806 164.400,56.592 164.400 C 55.259 164.400,54.800 164.920,54.800 166.433 C 54.800 167.006,54.517 167.200,53.680 167.200 C 52.266 167.200,51.600 167.858,51.600 169.255 C 51.600 170.197,51.419 170.367,50.300 170.475 C 49.117 170.589,48.989 170.733,48.877 172.077 C 48.762 173.465,48.665 173.562,47.277 173.677 C 45.885 173.793,45.793 173.886,45.676 175.300 C 45.555 176.758,45.508 176.800,43.976 176.800 C 42.408 176.800,42.400 176.808,42.400 178.376 C 42.400 179.908,42.358 179.955,40.900 180.076 C 39.481 180.193,39.393 180.281,39.276 181.700 C 39.155 183.158,39.108 183.200,37.576 183.200 C 36.054 183.200,36.000 183.246,36.000 184.543 L 36.000 185.886 33.500 186.144 C 30.293 186.476,30.000 186.882,30.000 190.996 C 30.000 194.556,30.319 195.200,32.080 195.200 C 33.087 195.200,33.200 195.337,33.200 196.557 C 33.200 197.932,33.704 198.400,35.188 198.400 C 35.696 198.400,35.988 198.812,36.171 199.785 C 36.394 200.975,36.625 201.206,37.815 201.429 C 38.922 201.637,39.200 201.875,39.200 202.616 C 39.200 203.810,40.199 204.800,41.404 204.800 C 42.210 204.800,42.370 205.024,42.476 206.300 C 42.593 207.719,42.681 207.807,44.100 207.924 C 45.519 208.042,45.600 208.123,45.600 209.424 C 45.600 211.651,48.278 211.479,49.336 209.184 C 49.740 208.306,50.484 207.366,50.989 207.094 C 51.780 206.668,56.732 202.240,61.605 197.600 C 62.414 196.830,64.571 194.850,66.399 193.200 C 68.227 191.550,70.489 189.435,71.426 188.500 C 72.362 187.565,73.307 186.800,73.525 186.800 C 73.743 186.800,74.293 186.170,74.747 185.400 C 75.201 184.630,75.803 184.000,76.083 184.000 C 76.364 184.000,77.225 183.367,77.997 182.592 C 82.543 178.032,85.940 174.800,86.188 174.800 C 86.344 174.800,87.727 173.524,89.262 171.965 C 90.797 170.405,92.986 168.312,94.126 167.314 C 95.267 166.315,97.910 163.893,100.000 161.931 C 102.090 159.969,104.572 157.697,105.515 156.882 C 106.458 156.067,107.538 155.085,107.915 154.700 C 109.440 153.142,110.265 152.362,111.600 151.216 C 112.370 150.556,114.620 148.486,116.600 146.617 C 118.580 144.749,120.830 142.675,121.600 142.010 C 123.149 140.672,124.744 139.163,125.481 138.338 C 125.745 138.042,127.058 136.810,128.398 135.600 C 129.739 134.390,131.952 132.327,133.318 131.015 C 135.790 128.639,143.793 121.244,146.336 118.986 C 147.071 118.334,148.449 117.080,149.398 116.200 C 150.348 115.320,151.366 114.376,151.662 114.102 C 151.958 113.828,152.626 113.198,153.148 112.702 C 154.671 111.252,157.312 108.804,160.594 105.800 C 164.583 102.148,169.356 97.692,173.018 94.200 C 174.633 92.660,176.556 90.860,177.290 90.200 C 178.024 89.540,180.066 87.650,181.827 86.000 C 183.589 84.350,186.523 81.650,188.348 80.000 C 190.172 78.350,192.416 76.309,193.333 75.465 C 194.250 74.620,195.133 73.810,195.294 73.665 C 195.456 73.519,196.198 72.725,196.942 71.900 C 199.032 69.583,201.221 69.712,203.704 72.300 C 204.706 73.345,206.038 74.650,206.664 75.200 C 208.519 76.832,213.583 81.497,216.814 84.551 C 218.472 86.118,222.069 89.470,224.806 92.000 C 227.544 94.530,230.515 97.365,231.408 98.300 C 232.301 99.235,233.157 100.000,233.310 100.000 C 233.542 100.000,236.544 102.789,240.727 106.891 C 242.285 108.419,242.424 108.549,244.279 110.200 C 245.268 111.080,246.644 112.346,247.338 113.014 C 248.032 113.682,250.306 115.752,252.392 117.614 C 254.478 119.476,257.115 121.900,258.253 123.000 C 259.391 124.100,261.104 125.701,262.061 126.558 C 263.017 127.414,265.252 129.484,267.026 131.158 C 268.800 132.831,272.474 136.270,275.190 138.800 C 277.906 141.330,281.538 144.782,283.260 146.472 C 284.983 148.161,286.725 149.649,287.132 149.778 C 287.539 149.908,288.101 150.440,288.380 150.962 C 288.659 151.484,289.326 152.111,289.862 152.356 C 290.398 152.600,291.144 153.339,291.519 153.997 C 291.893 154.656,292.346 155.196,292.523 155.197 C 292.857 155.200,293.430 155.706,300.005 161.800 C 309.038 170.173,312.593 173.433,315.084 175.631 C 315.478 175.979,316.191 176.699,316.669 177.231 C 317.147 177.764,318.927 179.460,320.626 181.000 C 322.325 182.540,324.468 184.520,325.390 185.400 C 326.311 186.280,327.411 187.297,327.833 187.660 C 328.255 188.022,329.006 188.742,329.503 189.260 C 329.999 189.777,331.079 190.783,331.903 191.496 C 332.726 192.209,334.836 194.162,336.591 195.837 C 338.346 197.512,340.116 199.116,340.526 199.403 C 340.935 199.690,342.559 201.159,344.135 202.668 C 345.711 204.177,347.836 206.090,348.857 206.919 C 349.878 207.747,350.935 208.960,351.205 209.613 C 352.011 211.559,354.800 211.394,354.800 209.400 C 354.800 208.133,354.907 208.000,355.920 208.000 C 357.317 208.000,358.000 207.345,358.000 206.003 C 358.000 205.178,358.266 204.887,359.300 204.583 C 360.358 204.271,360.622 203.970,360.720 202.966 C 360.823 201.911,361.056 201.678,362.320 201.366 C 363.599 201.050,363.817 200.826,363.924 199.724 C 364.031 198.615,364.214 198.431,365.311 198.324 C 366.406 198.216,366.622 198.000,366.927 196.700 C 367.235 195.389,367.427 195.200,368.450 195.200 C 370.040 195.200,370.544 193.813,370.257 190.232 C 369.986 186.849,369.641 186.476,366.489 186.146 L 364.000 185.886 364.000 184.543 C 364.000 183.243,363.949 183.200,362.400 183.200 L 360.800 183.200 360.800 181.600 C 360.800 180.043,360.763 180.000,359.424 180.000 C 358.123 180.000,358.042 179.919,357.924 178.500 C 357.807 177.081,357.719 176.993,356.300 176.876 C 354.962 176.765,354.800 176.633,354.800 175.656 C 354.800 174.258,354.135 173.600,352.720 173.600 C 351.760 173.600,351.600 173.440,351.600 172.480 C 351.600 171.059,350.941 170.400,349.520 170.400 C 348.513 170.400,348.400 170.263,348.400 169.043 C 348.400 167.615,347.903 167.200,346.193 167.200 C 345.422 167.200,345.228 166.963,345.125 165.900 C 345.011 164.717,344.867 164.589,343.523 164.477 C 342.135 164.362,342.038 164.265,341.923 162.877 C 341.812 161.544,341.677 161.388,340.540 161.278 C 339.463 161.173,339.244 160.961,339.028 159.811 C 338.804 158.617,338.598 158.436,337.188 158.198 C 335.878 157.977,335.600 157.769,335.600 157.014 C 335.600 155.988,334.992 155.356,333.800 155.143 C 333.356 155.063,332.740 154.409,332.416 153.673 C 332.013 152.756,331.488 152.278,330.716 152.123 C 329.971 151.974,329.600 151.651,329.600 151.150 C 329.600 150.255,329.268 150.223,328.219 151.016 C 327.485 151.571,326.635 151.565,323.754 150.983 C 323.289 150.889,322.179 150.134,321.286 149.306 C 320.393 148.478,318.190 146.450,316.391 144.800 C 312.648 141.368,306.238 135.396,299.690 129.240 C 297.209 126.908,293.699 123.608,291.890 121.907 C 290.080 120.206,288.060 118.302,287.400 117.675 C 286.740 117.048,285.721 116.242,285.136 115.882 C 284.532 115.511,283.861 114.572,283.585 113.714 C 283.318 112.881,282.889 111.930,282.632 111.600 C 282.376 111.270,281.910 110.491,281.599 109.869 C 281.287 109.247,280.710 108.566,280.316 108.355 C 279.813 108.086,279.600 107.500,279.600 106.386 C 279.600 104.806,279.594 104.800,278.024 104.800 C 276.492 104.800,276.445 104.758,276.324 103.300 C 276.211 101.937,276.084 101.789,274.924 101.676 C 273.812 101.569,273.631 101.388,273.524 100.276 C 273.412 99.120,273.261 98.988,271.923 98.877 C 270.535 98.762,270.438 98.665,270.323 97.277 C 270.207 95.889,270.111 95.793,268.723 95.677 C 267.335 95.562,267.238 95.465,267.123 94.077 C 267.007 92.689,266.911 92.593,265.523 92.477 C 264.135 92.362,264.038 92.265,263.923 90.877 C 263.807 89.489,263.711 89.393,262.323 89.277 C 260.935 89.162,260.838 89.065,260.723 87.677 C 260.611 86.333,260.483 86.189,259.300 86.075 C 258.346 85.983,258.000 85.752,258.000 85.207 C 258.000 83.704,257.538 83.200,256.157 83.200 C 254.988 83.200,254.800 83.066,254.800 82.233 C 254.800 80.496,254.391 80.000,252.957 80.000 C 251.852 80.000,251.600 79.846,251.600 79.174 C 251.600 77.688,250.847 76.800,249.586 76.800 C 248.625 76.800,248.399 76.630,248.394 75.900 C 248.385 74.604,247.966 74.137,246.537 73.827 C 245.611 73.626,245.203 73.268,245.006 72.480 C 244.696 71.245,244.160 70.815,242.922 70.806 C 242.370 70.802,241.850 70.402,241.522 69.728 C 240.864 68.377,238.989 67.267,237.300 67.229 C 236.087 67.202,236.000 67.107,236.000 65.800 C 236.000 64.433,235.962 64.400,234.400 64.400 L 232.800 64.400 232.800 62.800 C 232.800 61.204,232.796 61.200,231.224 61.200 C 229.692 61.200,229.645 61.158,229.524 59.700 C 229.407 58.286,229.315 58.193,227.923 58.077 C 226.535 57.962,226.438 57.865,226.323 56.477 C 226.212 55.139,226.080 54.988,224.923 54.876 C 223.766 54.764,223.634 54.613,223.523 53.276 C 223.407 51.890,223.310 51.793,221.924 51.677 C 220.587 51.566,220.436 51.434,220.324 50.277 C 220.212 49.120,220.061 48.988,218.723 48.877 C 217.335 48.762,217.238 48.665,217.123 47.277 C 217.007 45.889,216.911 45.793,215.523 45.677 C 214.135 45.562,214.038 45.465,213.923 44.077 C 213.807 42.685,213.714 42.593,212.300 42.476 C 210.892 42.359,210.800 42.270,210.800 41.019 C 210.800 39.669,210.288 39.200,208.812 39.200 C 208.304 39.200,208.012 38.788,207.829 37.815 C 207.606 36.625,207.375 36.394,206.185 36.171 C 205.212 35.988,204.800 35.696,204.800 35.188 C 204.800 33.305,204.544 33.200,199.957 33.200 L 195.600 33.200 195.600 34.600 M151.419 235.169 C 151.136 235.627,151.095 365.906,151.378 366.364 C 151.491 366.547,152.150 366.810,152.842 366.948 C 153.992 367.178,154.079 367.303,153.860 368.400 C 153.622 369.590,153.634 369.600,155.410 369.600 C 157.372 369.600,157.528 369.425,156.536 368.329 C 156.170 367.925,156.005 367.461,156.169 367.298 C 156.581 366.886,241.718 366.704,243.290 367.111 L 244.560 367.440 243.680 368.320 C 242.468 369.532,242.528 369.600,244.800 369.600 C 246.985 369.600,247.031 369.563,246.300 368.382 C 245.724 367.453,246.350 366.817,247.853 366.806 C 248.397 366.802,248.794 366.474,248.948 365.900 C 249.452 364.019,249.228 235.788,248.720 235.280 C 248.123 234.683,151.788 234.573,151.419 235.169 M231.846 296.608 C 233.739 298.052,233.995 299.516,233.998 308.920 C 234.000 318.043,233.880 318.620,231.584 320.552 C 229.697 322.139,227.474 321.692,225.635 319.354 C 224.289 317.642,224.345 298.567,225.700 297.294 C 227.704 295.411,229.949 295.161,231.846 296.608 M175.731 370.300 C 189.333 370.358,211.473 370.358,224.931 370.300 C 238.389 370.242,227.260 370.194,200.200 370.194 C 173.140 370.194,162.129 370.242,175.731 370.300 " stroke="none" fill="#c93118" fill-rule="evenodd"></path><path id="path1" d="M282.100 71.596 C 281.385 72.032,280.800 72.571,280.800 72.794 C 280.800 73.017,281.160 72.840,281.600 72.400 C 282.346 71.654,282.931 71.424,283.730 71.563 C 283.911 71.594,283.945 71.435,283.806 71.210 C 283.488 70.696,283.628 70.664,282.100 71.596 M295.700 71.100 C 300.045 71.164,307.155 71.164,311.500 71.100 C 315.845 71.035,312.290 70.982,303.600 70.982 C 294.910 70.982,291.355 71.035,295.700 71.100 M322.100 71.076 C 322.485 71.176,323.115 71.176,323.500 71.076 C 323.885 70.975,323.570 70.893,322.800 70.893 C 322.030 70.893,321.715 70.975,322.100 71.076 M324.806 71.051 C 324.797 71.726,325.881 72.517,326.171 72.047 C 326.304 71.832,326.230 71.542,326.007 71.404 C 325.783 71.266,325.597 71.298,325.594 71.476 C 325.591 71.654,325.413 71.530,325.200 71.200 C 324.987 70.870,324.809 70.803,324.806 71.051 M282.177 72.567 C 281.750 72.879,281.507 73.240,281.636 73.370 C 281.766 73.499,282.198 73.244,282.598 72.802 C 283.448 71.863,283.273 71.766,282.177 72.567 M177.266 141.932 C 175.258 142.217,175.200 142.923,175.200 167.143 C 175.200 187.955,175.249 189.572,175.909 190.387 L 176.617 191.262 200.186 191.269 C 222.357 191.275,223.786 191.233,224.278 190.561 C 224.693 189.993,224.800 185.158,224.800 166.942 C 224.800 142.851,224.741 142.020,223.036 141.981 C 218.489 141.875,177.973 141.832,177.266 141.932 M72.344 150.366 C 71.825 150.787,71.504 151.236,71.632 151.364 C 71.759 151.492,72.286 151.148,72.801 150.598 C 73.915 149.413,73.672 149.290,72.344 150.366 M354.186 345.400 C 354.186 356.400,354.237 360.842,354.300 355.272 C 354.363 349.702,354.362 340.702,354.300 335.272 C 354.237 329.842,354.185 334.400,354.186 345.400 " stroke="none" fill="#0a559c" fill-rule="evenodd"></path><path id="path2" d="M282.628 71.607 C 281.388 72.399,280.490 73.600,281.137 73.600 C 281.345 73.600,281.618 73.330,281.745 73.000 C 281.871 72.670,282.183 72.400,282.436 72.400 C 282.752 72.400,282.724 72.622,282.349 73.100 C 281.852 73.733,281.866 73.748,282.496 73.255 C 282.878 72.955,283.122 72.595,283.038 72.455 C 282.953 72.315,283.122 71.980,283.413 71.712 C 283.810 71.344,283.980 71.339,284.097 71.691 C 284.191 71.972,284.358 71.887,284.514 71.480 C 284.853 70.597,284.133 70.646,282.628 71.607 M286.100 71.076 C 286.485 71.176,287.115 71.176,287.500 71.076 C 287.885 70.975,287.570 70.893,286.800 70.893 C 286.030 70.893,285.715 70.975,286.100 71.076 M325.019 72.019 C 325.661 72.690,326.252 73.044,326.331 72.806 C 326.524 72.228,325.604 71.151,325.155 71.428 C 324.960 71.549,324.800 71.457,324.800 71.224 C 324.800 70.991,324.586 70.800,324.325 70.800 C 324.064 70.800,324.376 71.349,325.019 72.019 M198.080 73.280 C 197.816 73.544,197.600 73.990,197.600 74.270 C 197.600 74.551,196.959 75.110,196.176 75.511 C 195.393 75.913,194.535 76.679,194.268 77.213 C 194.002 77.747,193.366 78.393,192.855 78.648 C 192.344 78.902,191.581 79.677,191.160 80.369 C 190.740 81.061,190.081 81.745,189.698 81.889 C 189.314 82.034,188.247 82.882,187.327 83.776 C 186.407 84.669,185.461 85.580,185.225 85.800 C 184.989 86.020,183.803 87.235,182.590 88.500 C 181.376 89.765,180.284 90.800,180.163 90.800 C 179.916 90.800,180.065 90.670,175.521 94.871 C 173.695 96.560,171.210 98.771,170.000 99.783 C 167.223 102.108,167.340 101.994,166.364 103.300 C 165.912 103.905,165.290 104.400,164.981 104.400 C 164.673 104.400,164.134 104.954,163.784 105.632 C 163.428 106.318,162.552 107.111,161.803 107.425 C 161.063 107.734,160.342 108.351,160.201 108.798 C 160.059 109.244,159.419 109.880,158.778 110.211 C 158.138 110.542,157.347 111.329,157.021 111.960 C 156.695 112.590,155.975 113.220,155.421 113.359 C 154.859 113.500,154.135 114.152,153.782 114.836 C 153.434 115.509,152.637 116.238,152.012 116.456 C 151.344 116.688,150.675 117.336,150.389 118.026 C 150.122 118.672,149.738 119.200,149.537 119.200 C 149.335 119.200,148.375 119.965,147.403 120.900 C 145.049 123.165,144.196 123.976,141.201 126.800 C 138.197 129.632,136.515 131.170,131.800 135.398 C 129.380 137.568,126.836 139.941,126.146 140.672 C 125.456 141.402,124.646 142.001,124.346 142.003 C 124.046 142.004,123.484 142.560,123.098 143.238 C 122.712 143.916,121.868 144.670,121.222 144.914 C 120.528 145.176,119.950 145.745,119.810 146.304 C 119.672 146.853,119.060 147.466,118.354 147.762 C 117.684 148.044,116.924 148.708,116.663 149.237 C 116.403 149.767,115.620 150.452,114.924 150.760 C 114.177 151.090,113.557 151.717,113.414 152.286 C 113.261 152.895,112.654 153.469,111.772 153.838 C 110.992 154.164,110.208 154.852,110.003 155.392 C 109.800 155.925,109.099 156.638,108.446 156.976 C 107.792 157.315,107.141 157.955,107.000 158.400 C 106.859 158.845,106.246 159.466,105.637 159.781 C 105.029 160.095,104.042 160.993,103.445 161.776 C 102.848 162.559,102.092 163.200,101.766 163.200 C 101.440 163.200,100.801 163.830,100.347 164.600 C 99.893 165.370,99.380 166.000,99.209 166.000 C 99.037 166.000,98.179 166.675,97.301 167.500 C 95.852 168.863,92.449 171.990,86.361 177.554 C 85.130 178.679,83.960 179.601,83.761 179.603 C 83.563 179.604,83.084 180.160,82.698 180.838 C 82.312 181.516,81.488 182.263,80.866 182.497 C 80.245 182.732,79.571 183.301,79.368 183.762 C 79.166 184.223,78.422 184.870,77.716 185.200 C 77.009 185.530,76.225 186.288,75.973 186.885 C 75.721 187.482,74.997 188.200,74.364 188.480 C 73.725 188.763,73.040 189.485,72.825 190.101 C 72.547 190.898,72.081 191.284,71.178 191.464 C 70.277 191.645,69.808 192.031,69.533 192.820 C 69.321 193.428,68.665 194.125,68.074 194.371 C 67.483 194.616,66.692 195.355,66.317 196.012 C 65.941 196.669,65.172 197.382,64.609 197.596 C 64.046 197.811,63.412 198.443,63.199 199.003 C 62.986 199.563,62.494 200.133,62.106 200.271 C 61.718 200.409,59.870 202.034,58.000 203.882 C 52.244 209.570,51.846 209.907,50.300 210.392 C 48.983 210.805,48.799 211.017,48.794 212.131 C 48.789 213.048,48.687 213.241,48.424 212.826 C 48.131 212.362,47.945 212.347,47.458 212.752 C 46.944 213.178,46.830 213.056,46.691 211.926 C 46.546 210.745,46.514 210.797,46.404 212.400 L 46.280 214.200 46.000 212.400 C 45.846 211.410,45.693 245.475,45.660 288.100 C 45.604 360.798,45.642 365.600,46.280 365.600 C 46.809 365.600,46.853 365.493,46.480 365.120 C 46.118 364.758,46.012 359.578,46.047 344.020 C 46.073 332.679,46.232 323.940,46.400 324.600 L 46.705 325.800 46.784 324.600 L 46.863 323.400 47.286 324.563 L 47.709 325.726 48.222 324.563 C 48.629 323.641,48.742 323.566,48.767 324.200 C 48.800 324.996,49.040 324.999,95.500 324.893 C 121.185 324.834,142.920 324.934,143.800 325.115 C 145.290 325.421,147.942 324.993,148.592 324.342 C 148.734 324.199,148.884 303.859,148.925 279.142 C 149.006 230.522,148.890 233.034,151.097 232.028 C 151.749 231.731,166.868 231.600,200.398 231.600 L 248.759 231.600 249.879 232.638 L 251.000 233.677 251.105 278.794 C 251.194 317.204,251.295 323.981,251.779 324.382 C 252.543 325.017,350.689 324.990,351.455 324.355 C 351.838 324.037,352.053 324.258,352.344 325.268 C 352.704 326.518,352.733 326.452,352.817 324.200 C 352.896 322.065,352.938 321.954,353.200 323.200 C 353.362 323.970,353.506 299.310,353.519 268.400 C 353.533 236.733,353.394 212.549,353.200 213.000 C 352.882 213.740,352.854 213.727,352.828 212.824 C 352.801 211.878,352.781 211.872,352.213 212.624 C 351.656 213.359,351.625 213.334,351.613 212.132 C 351.601 210.975,351.431 210.808,349.668 210.223 C 348.458 209.821,347.402 209.128,346.841 208.369 C 346.348 207.703,345.494 206.952,344.942 206.701 C 344.391 206.450,343.675 205.731,343.351 205.105 C 343.027 204.478,342.340 203.773,341.825 203.539 C 341.310 203.304,340.692 202.680,340.451 202.153 C 340.211 201.625,339.417 200.909,338.686 200.561 C 337.956 200.212,337.188 199.540,336.979 199.065 C 336.771 198.591,336.122 197.976,335.537 197.698 C 334.953 197.420,334.104 196.564,333.651 195.796 C 333.198 195.028,332.545 194.400,332.200 194.400 C 331.855 194.400,331.201 193.770,330.747 193.000 C 330.293 192.230,329.607 191.600,329.222 191.600 C 328.471 191.600,327.200 190.411,327.200 189.708 C 327.200 189.472,326.552 188.897,325.760 188.429 C 324.968 187.962,324.225 187.217,324.109 186.774 C 323.993 186.331,323.275 185.708,322.513 185.389 C 321.751 185.071,321.031 184.441,320.913 183.989 C 320.795 183.538,320.112 182.923,319.395 182.624 C 318.678 182.324,317.772 181.537,317.380 180.874 C 316.988 180.211,316.242 179.474,315.723 179.238 C 315.203 179.001,314.673 178.535,314.546 178.203 C 314.419 177.871,313.389 176.864,312.257 175.965 C 311.126 175.066,308.801 172.996,307.090 171.365 C 305.380 169.734,303.817 168.400,303.617 168.400 C 303.417 168.400,303.146 168.059,303.014 167.643 C 302.882 167.227,302.224 166.659,301.553 166.381 C 300.882 166.103,300.172 165.453,299.976 164.938 C 299.780 164.422,299.057 163.658,298.370 163.240 C 297.682 162.822,296.781 161.922,296.366 161.240 C 295.951 160.558,295.348 160.000,295.026 160.000 C 294.704 160.000,293.966 159.377,293.385 158.616 C 292.804 157.854,291.983 157.122,291.560 156.987 C 291.137 156.853,290.520 156.219,290.189 155.578 C 289.858 154.938,289.042 154.132,288.376 153.788 C 287.710 153.443,287.000 152.725,286.797 152.192 C 286.594 151.657,285.812 150.965,285.053 150.648 C 284.296 150.332,283.554 149.686,283.404 149.214 C 283.254 148.741,282.690 148.186,282.149 147.981 C 281.609 147.775,280.859 147.068,280.483 146.410 C 280.108 145.751,279.291 145.034,278.669 144.816 C 277.972 144.572,277.363 143.956,277.081 143.210 C 276.830 142.545,276.381 142.000,276.083 142.000 C 275.785 142.000,274.879 141.382,274.071 140.626 C 272.139 138.822,265.631 132.859,262.600 130.117 C 261.280 128.922,260.020 127.772,259.800 127.560 C 259.580 127.348,258.978 126.775,258.463 126.287 C 257.948 125.799,256.868 124.750,256.063 123.957 C 255.258 123.163,254.282 122.402,253.894 122.267 C 253.506 122.131,253.018 121.575,252.811 121.029 C 252.604 120.484,251.899 119.762,251.246 119.424 C 250.592 119.085,249.939 118.437,249.794 117.982 C 249.650 117.527,248.919 116.862,248.170 116.505 C 247.421 116.148,246.702 115.521,246.572 115.113 C 246.443 114.704,245.645 113.933,244.800 113.400 C 243.955 112.867,243.151 112.076,243.014 111.644 C 242.877 111.212,242.143 110.491,241.382 110.043 C 240.622 109.594,240.000 109.043,240.000 108.819 C 240.000 108.594,239.271 107.950,238.381 107.388 C 237.490 106.826,236.630 106.010,236.469 105.576 C 236.309 105.141,235.552 104.474,234.789 104.093 C 233.953 103.676,233.351 103.054,233.276 102.531 C 233.200 101.993,232.715 101.509,232.006 101.262 C 231.375 101.042,230.550 100.390,230.172 99.814 C 229.795 99.237,229.078 98.548,228.580 98.283 C 227.701 97.814,223.879 94.354,217.000 87.800 C 210.913 82.001,210.463 81.600,210.040 81.600 C 209.809 81.600,209.343 81.063,209.004 80.407 C 208.664 79.750,207.885 78.954,207.271 78.637 C 206.658 78.320,205.951 77.611,205.702 77.063 C 205.452 76.515,204.743 75.825,204.127 75.530 C 203.511 75.234,202.771 74.499,202.482 73.896 C 201.903 72.688,199.069 72.291,198.080 73.280 M326.959 74.200 C 327.376 74.516,327.871 74.680,328.059 74.564 C 328.247 74.448,328.400 74.543,328.400 74.776 C 328.400 75.009,328.574 75.200,328.787 75.200 C 329.001 75.200,329.067 74.920,328.936 74.577 C 328.804 74.234,328.450 74.049,328.148 74.164 C 327.847 74.280,327.600 74.201,327.600 73.987 C 327.600 73.774,327.285 73.606,326.900 73.613 C 326.260 73.624,326.265 73.674,326.959 74.200 M329.101 99.500 C 329.156 112.425,329.248 128.940,329.306 136.200 C 329.364 143.460,329.454 132.885,329.506 112.700 C 329.558 92.515,329.465 76.000,329.300 76.000 C 329.135 76.000,329.045 86.575,329.101 99.500 M280.000 104.643 C 280.000 105.044,280.221 105.201,280.587 105.060 C 280.910 104.936,281.298 105.035,281.449 105.279 C 281.609 105.538,281.542 105.612,281.289 105.455 C 281.051 105.308,280.754 105.351,280.630 105.552 C 280.373 105.967,281.294 106.400,282.433 106.400 C 283.843 106.400,283.427 104.545,281.950 104.250 C 280.163 103.893,280.000 103.926,280.000 104.643 M285.426 110.758 C 285.304 110.955,285.474 111.219,285.802 111.346 C 286.165 111.485,286.400 111.344,286.400 110.987 C 286.400 110.340,285.775 110.193,285.426 110.758 M225.609 140.809 C 226.834 142.034,226.672 191.795,225.438 193.158 C 224.679 193.996,224.574 194.000,200.154 194.000 L 175.631 194.000 174.831 193.141 C 173.602 191.821,173.552 190.629,173.680 165.342 C 173.795 142.730,173.834 141.646,174.562 140.842 C 175.739 139.542,224.311 139.511,225.609 140.809 M354.195 269.000 C 354.195 300.240,354.242 312.961,354.300 297.269 C 354.358 281.577,354.358 256.017,354.300 240.469 C 354.242 224.921,354.195 237.760,354.195 269.000 M353.639 365.753 C 353.285 366.180,353.319 366.360,353.790 366.541 C 354.209 366.702,354.400 366.529,354.400 365.987 C 354.400 365.055,354.255 365.010,353.639 365.753 M46.000 367.200 C 46.000 368.126,47.334 369.600,48.173 369.600 C 48.559 369.600,48.707 369.242,48.628 368.500 C 48.521 367.498,47.800 367.062,47.800 368.000 C 47.800 368.220,47.620 368.360,47.400 368.312 C 47.180 368.263,47.057 367.975,47.127 367.672 C 47.197 367.364,47.065 367.236,46.827 367.383 C 46.592 367.529,46.400 367.472,46.400 367.257 C 46.400 367.042,46.625 366.776,46.900 366.665 C 47.199 366.544,47.118 366.450,46.700 366.432 C 46.256 366.412,46.000 366.693,46.000 367.200 M353.305 367.297 C 353.536 367.899,352.561 369.148,351.867 369.138 C 351.683 369.136,351.428 369.238,351.300 369.367 C 351.172 369.495,351.429 369.600,351.871 369.600 C 353.322 369.600,354.577 367.604,353.532 366.958 C 353.223 366.767,353.146 366.882,353.305 367.297 M352.026 367.769 C 351.751 368.100,351.714 368.423,351.935 368.560 C 352.141 368.687,352.518 368.539,352.774 368.231 C 353.049 367.900,353.086 367.577,352.865 367.440 C 352.659 367.313,352.282 367.461,352.026 367.769 " stroke="none" fill="#ebecf4" fill-rule="evenodd"></path><path id="path3" d="M302.700 71.104 C 290.264 71.175,284.400 71.343,284.400 71.628 C 284.400 71.858,284.240 71.948,284.044 71.827 C 283.848 71.706,283.394 72.055,283.035 72.603 C 282.675 73.152,282.048 73.600,281.640 73.600 C 280.104 73.600,280.038 74.234,280.010 89.282 L 279.983 103.927 281.592 104.199 C 283.376 104.500,284.102 106.400,282.433 106.400 C 281.294 106.400,280.373 105.967,280.630 105.552 C 280.754 105.351,281.051 105.308,281.289 105.455 C 281.542 105.612,281.609 105.538,281.449 105.279 C 280.910 104.407,280.000 105.269,280.000 106.653 C 280.000 107.750,280.201 108.096,281.019 108.407 C 281.580 108.621,282.310 109.381,282.641 110.097 C 283.907 112.834,285.102 114.401,287.608 116.616 C 289.033 117.875,291.510 120.187,293.111 121.753 C 294.713 123.319,296.764 125.230,297.670 126.000 C 298.576 126.770,299.876 127.965,300.559 128.656 C 301.241 129.347,302.790 130.766,304.000 131.809 C 305.210 132.851,307.910 135.326,310.000 137.306 C 312.090 139.287,315.330 142.338,317.200 144.086 C 319.070 145.834,321.249 147.893,322.043 148.663 C 323.455 150.032,323.547 150.059,326.342 149.931 L 329.199 149.800 329.194 113.400 C 329.191 93.380,329.079 76.588,328.944 76.084 C 328.712 75.220,326.586 73.728,325.870 73.928 C 325.689 73.978,325.663 73.822,325.812 73.580 C 326.250 72.872,324.385 71.191,323.229 71.252 C 322.663 71.282,321.930 71.238,321.600 71.153 C 321.270 71.069,312.765 71.047,302.700 71.104 M197.161 73.399 C 194.992 75.628,189.736 80.597,186.725 83.266 C 185.202 84.617,182.571 87.043,180.878 88.658 C 179.185 90.273,177.693 91.596,177.562 91.597 C 177.431 91.599,175.872 93.040,174.097 94.800 C 172.323 96.560,170.672 98.000,170.427 98.000 C 170.183 98.000,169.783 98.438,169.540 98.973 C 169.296 99.508,168.603 100.150,168.000 100.400 C 167.397 100.650,166.709 101.282,166.470 101.806 C 166.232 102.329,165.533 103.082,164.918 103.479 C 164.303 103.875,163.164 104.830,162.386 105.600 C 161.609 106.370,158.760 109.070,156.056 111.600 C 150.974 116.355,149.944 117.322,145.582 121.433 C 142.466 124.369,133.526 132.579,131.657 134.221 C 130.919 134.869,129.674 136.075,128.892 136.900 C 128.109 137.725,127.243 138.400,126.967 138.400 C 126.691 138.400,126.076 139.030,125.600 139.800 C 125.124 140.570,124.561 141.200,124.350 141.200 C 124.138 141.200,123.297 141.833,122.482 142.606 C 120.719 144.278,116.122 148.610,109.916 154.448 C 107.432 156.784,103.326 160.654,100.790 163.048 C 98.255 165.442,95.285 168.120,94.190 169.000 C 93.096 169.880,92.132 170.758,92.050 170.950 C 91.876 171.356,91.204 171.988,88.599 174.200 C 87.563 175.080,85.316 177.195,83.606 178.900 C 81.895 180.605,80.352 182.000,80.177 182.000 C 80.001 182.000,79.264 182.585,78.539 183.300 C 77.814 184.015,76.812 184.974,76.311 185.431 C 75.810 185.888,75.130 186.553,74.800 186.909 C 74.470 187.266,73.364 188.332,72.343 189.279 C 66.713 194.496,60.622 200.210,57.425 203.272 C 55.431 205.181,53.080 207.286,52.200 207.950 C 51.320 208.614,50.122 209.527,49.537 209.979 C 48.952 210.430,48.097 210.800,47.637 210.800 C 46.966 210.800,46.800 211.048,46.800 212.049 C 46.800 213.141,46.879 213.232,47.430 212.775 C 47.953 212.341,48.123 212.350,48.424 212.826 C 48.687 213.241,48.789 213.048,48.794 212.131 C 48.799 211.017,48.983 210.805,50.300 210.392 C 51.846 209.907,52.244 209.570,58.000 203.882 C 59.870 202.034,61.718 200.409,62.106 200.271 C 62.494 200.133,62.986 199.563,63.199 199.003 C 63.412 198.443,64.046 197.811,64.609 197.596 C 65.172 197.382,65.941 196.669,66.317 196.012 C 66.692 195.355,67.483 194.616,68.074 194.371 C 68.665 194.125,69.321 193.428,69.533 192.820 C 69.808 192.031,70.277 191.645,71.178 191.464 C 72.081 191.284,72.547 190.898,72.825 190.101 C 73.040 189.485,73.725 188.763,74.364 188.480 C 74.997 188.200,75.721 187.482,75.973 186.885 C 76.225 186.288,77.009 185.530,77.716 185.200 C 78.422 184.870,79.166 184.223,79.368 183.762 C 79.571 183.301,80.245 182.732,80.866 182.497 C 81.488 182.263,82.312 181.516,82.698 180.838 C 83.084 180.160,83.563 179.604,83.761 179.603 C 83.960 179.601,85.130 178.679,86.361 177.554 C 92.449 171.990,95.852 168.863,97.301 167.500 C 98.179 166.675,99.037 166.000,99.209 166.000 C 99.380 166.000,99.893 165.370,100.347 164.600 C 100.801 163.830,101.440 163.200,101.766 163.200 C 102.092 163.200,102.848 162.559,103.445 161.776 C 104.042 160.993,105.029 160.095,105.637 159.781 C 106.246 159.466,106.859 158.845,107.000 158.400 C 107.141 157.955,107.792 157.315,108.446 156.976 C 109.099 156.638,109.800 155.925,110.003 155.392 C 110.208 154.852,110.992 154.164,111.772 153.838 C 112.654 153.469,113.261 152.895,113.414 152.286 C 113.557 151.717,114.177 151.090,114.924 150.760 C 115.620 150.452,116.403 149.767,116.663 149.237 C 116.924 148.708,117.684 148.044,118.354 147.762 C 119.060 147.466,119.672 146.853,119.810 146.304 C 119.950 145.745,120.528 145.176,121.222 144.914 C 121.868 144.670,122.712 143.916,123.098 143.238 C 123.484 142.560,124.046 142.004,124.346 142.003 C 124.646 142.001,125.456 141.402,126.146 140.672 C 126.836 139.941,129.380 137.568,131.800 135.398 C 136.515 131.170,138.197 129.632,141.201 126.800 C 144.196 123.976,145.049 123.165,147.403 120.900 C 148.375 119.965,149.335 119.200,149.537 119.200 C 149.738 119.200,150.122 118.672,150.389 118.026 C 150.675 117.336,151.344 116.688,152.012 116.456 C 152.637 116.238,153.434 115.509,153.782 114.836 C 154.135 114.152,154.859 113.500,155.421 113.359 C 155.975 113.220,156.695 112.590,157.021 111.960 C 157.347 111.329,158.138 110.542,158.778 110.211 C 159.419 109.880,160.059 109.244,160.201 108.798 C 160.342 108.351,161.063 107.734,161.803 107.425 C 162.552 107.111,163.428 106.318,163.784 105.632 C 164.134 104.954,164.673 104.400,164.981 104.400 C 165.290 104.400,165.912 103.905,166.364 103.300 C 167.340 101.994,167.223 102.108,170.000 99.783 C 171.210 98.771,173.695 96.560,175.521 94.871 C 180.065 90.670,179.916 90.800,180.163 90.800 C 180.284 90.800,181.376 89.765,182.590 88.500 C 183.803 87.235,184.989 86.020,185.225 85.800 C 185.461 85.580,186.407 84.669,187.327 83.776 C 188.247 82.882,189.314 82.034,189.698 81.889 C 190.081 81.745,190.740 81.061,191.160 80.369 C 191.581 79.677,192.344 78.902,192.855 78.648 C 193.366 78.393,194.002 77.748,194.267 77.215 C 194.533 76.682,195.313 75.955,196.000 75.600 C 196.687 75.245,197.468 74.514,197.734 73.977 C 198.514 72.405,201.734 72.336,202.472 73.876 C 202.766 74.490,203.501 75.229,204.105 75.519 C 204.709 75.808,205.459 76.540,205.771 77.145 C 206.084 77.749,206.795 78.451,207.351 78.705 C 207.907 78.958,208.645 79.713,208.991 80.383 C 209.337 81.052,209.809 81.600,210.040 81.600 C 210.463 81.600,210.913 82.001,217.000 87.800 C 223.879 94.354,227.701 97.814,228.580 98.283 C 229.078 98.548,229.795 99.237,230.172 99.814 C 230.550 100.390,231.375 101.042,232.006 101.262 C 232.715 101.509,233.200 101.993,233.276 102.531 C 233.351 103.054,233.953 103.676,234.789 104.093 C 235.552 104.474,236.309 105.141,236.469 105.576 C 236.630 106.010,237.490 106.826,238.381 107.388 C 239.271 107.950,240.000 108.594,240.000 108.819 C 240.000 109.043,240.622 109.594,241.382 110.043 C 242.143 110.491,242.877 111.212,243.014 111.644 C 243.151 112.076,243.955 112.867,244.800 113.400 C 245.645 113.933,246.443 114.704,246.572 115.113 C 246.702 115.521,247.421 116.148,248.170 116.505 C 248.919 116.862,249.650 117.527,249.794 117.982 C 249.939 118.437,250.592 119.085,251.246 119.424 C 251.899 119.762,252.604 120.484,252.811 121.029 C 253.018 121.575,253.506 122.131,253.894 122.267 C 254.282 122.402,255.258 123.163,256.063 123.957 C 256.868 124.750,257.948 125.799,258.463 126.287 C 258.978 126.775,259.580 127.348,259.800 127.560 C 260.020 127.772,261.280 128.922,262.600 130.117 C 265.631 132.859,272.139 138.822,274.071 140.626 C 274.879 141.382,275.785 142.000,276.083 142.000 C 276.381 142.000,276.830 142.545,277.081 143.210 C 277.363 143.956,277.972 144.572,278.669 144.816 C 279.291 145.034,280.108 145.751,280.483 146.410 C 280.859 147.068,281.609 147.775,282.149 147.981 C 282.690 148.186,283.254 148.741,283.404 149.214 C 283.554 149.686,284.296 150.332,285.053 150.648 C 285.812 150.965,286.594 151.657,286.797 152.192 C 287.000 152.725,287.710 153.443,288.376 153.788 C 289.042 154.132,289.858 154.938,290.189 155.578 C 290.520 156.219,291.137 156.853,291.560 156.987 C 291.983 157.122,292.804 157.854,293.385 158.616 C 293.966 159.377,294.704 160.000,295.026 160.000 C 295.348 160.000,295.951 160.558,296.366 161.240 C 296.781 161.922,297.682 162.822,298.370 163.240 C 299.057 163.658,299.780 164.422,299.976 164.938 C 300.172 165.453,300.882 166.103,301.553 166.381 C 302.224 166.659,302.882 167.227,303.014 167.643 C 303.146 168.059,303.417 168.400,303.617 168.400 C 303.817 168.400,305.380 169.734,307.090 171.365 C 308.801 172.996,311.126 175.066,312.257 175.965 C 313.389 176.864,314.419 177.871,314.546 178.203 C 314.673 178.535,315.203 179.001,315.723 179.238 C 316.242 179.474,316.988 180.211,317.380 180.874 C 317.772 181.537,318.678 182.324,319.395 182.624 C 320.112 182.923,320.795 183.538,320.913 183.989 C 321.031 184.441,321.751 185.071,322.513 185.389 C 323.275 185.708,323.993 186.331,324.109 186.774 C 324.225 187.217,324.968 187.962,325.760 188.429 C 326.552 188.897,327.200 189.503,327.200 189.778 C 327.200 190.453,328.516 191.600,329.292 191.600 C 329.638 191.600,330.293 192.230,330.747 193.000 C 331.201 193.770,331.855 194.400,332.200 194.400 C 332.545 194.400,333.198 195.028,333.651 195.796 C 334.104 196.564,334.953 197.420,335.537 197.698 C 336.122 197.976,336.771 198.591,336.979 199.065 C 337.188 199.540,337.956 200.212,338.686 200.561 C 339.417 200.909,340.211 201.625,340.451 202.153 C 340.692 202.680,341.310 203.304,341.825 203.539 C 342.340 203.773,343.038 204.500,343.376 205.154 C 343.715 205.808,344.349 206.457,344.786 206.596 C 345.224 206.734,346.087 207.462,346.705 208.212 C 347.340 208.982,348.584 209.842,349.563 210.187 C 351.557 210.891,351.289 210.134,349.062 208.777 C 348.083 208.179,344.440 204.874,337.847 198.600 C 336.922 197.720,334.643 195.588,332.783 193.862 C 330.922 192.136,327.408 188.832,324.974 186.521 C 322.540 184.210,320.064 182.024,319.471 181.665 C 318.879 181.305,318.296 180.702,318.176 180.325 C 318.057 179.948,317.347 179.262,316.600 178.800 C 315.853 178.338,315.129 177.607,314.992 177.176 C 314.855 176.744,314.261 176.135,313.672 175.821 C 313.082 175.507,311.070 173.778,309.200 171.977 C 307.330 170.177,304.810 167.859,303.600 166.826 C 302.390 165.793,300.201 163.789,298.737 162.374 C 297.272 160.958,294.429 158.270,292.419 156.400 C 290.409 154.530,288.114 152.325,287.318 151.500 C 286.522 150.675,285.728 150.000,285.553 150.000 C 285.378 150.000,283.374 148.155,281.100 145.900 C 278.826 143.645,276.481 141.546,275.889 141.236 C 275.297 140.926,274.706 140.334,274.575 139.921 C 274.444 139.508,273.645 138.733,272.800 138.200 C 271.955 137.667,271.150 136.872,271.011 136.435 C 270.873 135.998,270.453 135.538,270.080 135.413 C 269.706 135.287,268.140 133.987,266.600 132.523 C 265.060 131.060,260.920 127.228,257.400 124.008 C 253.880 120.788,249.797 116.994,248.327 115.577 C 245.489 112.841,239.937 107.656,237.004 105.000 C 235.217 103.382,234.509 102.711,233.153 101.350 C 232.742 100.938,231.589 99.880,230.589 99.000 C 229.590 98.120,227.433 96.095,225.797 94.500 C 224.161 92.905,222.708 91.600,222.568 91.600 C 222.428 91.600,221.298 90.581,220.057 89.336 C 218.815 88.091,215.640 85.143,213.000 82.784 C 210.360 80.424,207.530 77.798,206.711 76.947 C 201.168 71.189,199.805 70.683,197.161 73.399 M286.400 110.987 C 286.400 111.344,286.165 111.485,285.802 111.346 C 285.474 111.219,285.304 110.955,285.426 110.758 C 285.775 110.193,286.400 110.340,286.400 110.987 M174.562 140.842 C 173.834 141.646,173.795 142.730,173.680 165.342 C 173.552 190.629,173.602 191.821,174.831 193.141 L 175.631 194.000 200.154 194.000 C 224.574 194.000,224.679 193.996,225.438 193.158 C 226.672 191.795,226.834 142.034,225.609 140.809 C 224.311 139.511,175.739 139.542,174.562 140.842 M223.036 141.981 C 224.741 142.020,224.800 142.851,224.800 166.942 C 224.800 185.158,224.693 189.993,224.278 190.561 C 223.786 191.233,222.357 191.275,200.186 191.269 L 176.617 191.262 175.909 190.387 C 175.249 189.572,175.200 187.955,175.200 167.143 C 175.200 142.923,175.258 142.217,177.266 141.932 C 177.973 141.832,218.489 141.875,223.036 141.981 M46.109 212.400 C 46.109 213.390,46.187 213.795,46.282 213.300 C 46.378 212.805,46.378 211.995,46.282 211.500 C 46.187 211.005,46.109 211.410,46.109 212.400 M351.613 212.100 C 351.625 213.330,351.657 213.358,352.213 212.624 C 352.781 211.872,352.801 211.878,352.828 212.824 C 352.854 213.727,352.882 213.740,353.200 213.000 C 353.394 212.549,353.533 236.733,353.519 268.400 C 353.506 299.310,353.362 323.970,353.200 323.200 C 352.938 321.954,352.896 322.065,352.817 324.200 C 352.733 326.452,352.704 326.518,352.344 325.268 C 352.053 324.258,351.838 324.037,351.455 324.355 C 350.689 324.990,252.543 325.017,251.779 324.382 C 251.295 323.981,251.194 317.204,251.105 278.794 L 251.000 233.677 249.879 232.638 L 248.759 231.600 200.398 231.600 C 166.868 231.600,151.749 231.731,151.097 232.028 C 148.890 233.034,149.006 230.522,148.925 279.142 C 148.884 303.859,148.734 324.199,148.592 324.342 C 147.942 324.993,145.290 325.421,143.800 325.115 C 142.920 324.934,121.185 324.834,95.500 324.893 C 49.040 324.999,48.800 324.996,48.767 324.200 C 48.742 323.566,48.629 323.641,48.222 324.563 L 47.709 325.726 47.286 324.563 L 46.863 323.400 46.784 324.600 L 46.705 325.800 46.400 324.600 C 46.232 323.940,46.073 332.704,46.047 344.076 C 46.018 356.854,46.146 364.843,46.383 364.989 C 46.593 365.119,46.664 365.490,46.540 365.813 C 46.416 366.136,46.524 366.400,46.781 366.400 C 47.037 366.400,47.152 366.553,47.036 366.741 C 46.920 366.929,47.092 367.424,47.419 367.841 C 47.745 368.258,47.964 368.420,47.906 368.200 C 47.848 367.980,47.960 367.710,48.155 367.600 C 48.351 367.490,48.566 367.915,48.633 368.544 C 48.700 369.173,48.870 369.803,49.011 369.944 C 49.151 370.085,71.887 370.249,99.533 370.309 L 149.800 370.419 149.800 302.424 C 149.800 241.600,149.865 234.363,150.419 233.810 C 151.010 233.219,171.687 233.088,247.291 233.197 C 250.686 233.202,250.387 226.556,250.414 302.729 L 250.438 370.413 300.417 370.392 L 350.395 370.372 351.184 369.525 C 351.618 369.060,351.891 368.547,351.791 368.385 C 351.691 368.223,351.922 367.845,352.304 367.545 C 352.946 367.043,352.955 367.062,352.422 367.800 C 351.879 368.551,351.887 368.561,352.549 367.959 C 352.936 367.606,353.292 367.066,353.338 366.759 C 353.384 366.452,353.551 365.994,353.708 365.743 C 353.905 365.428,354.152 235.976,354.003 211.300 C 354.001 211.012,353.492 210.800,352.800 210.800 C 351.710 210.800,351.601 210.919,351.613 212.100 " stroke="none" fill="#c4ccec" fill-rule="evenodd"></path><path id="path4" d="M196.942 71.900 C 196.198 72.725,195.456 73.519,195.294 73.665 C 195.133 73.810,194.250 74.620,193.333 75.465 C 192.416 76.309,190.172 78.350,188.348 80.000 C 186.523 81.650,183.589 84.350,181.827 86.000 C 180.066 87.650,178.024 89.540,177.290 90.200 C 176.556 90.860,174.633 92.660,173.018 94.200 C 169.356 97.692,164.583 102.148,160.594 105.800 C 157.312 108.804,154.671 111.252,153.148 112.702 C 152.626 113.198,151.958 113.828,151.662 114.102 C 151.366 114.376,150.348 115.320,149.398 116.200 C 148.449 117.080,147.071 118.334,146.336 118.986 C 143.793 121.244,135.790 128.639,133.318 131.015 C 131.952 132.327,129.739 134.390,128.398 135.600 C 127.058 136.810,125.745 138.042,125.481 138.338 C 124.744 139.163,123.149 140.672,121.600 142.010 C 120.830 142.675,118.580 144.749,116.600 146.617 C 114.620 148.486,112.370 150.556,111.600 151.216 C 110.302 152.330,109.278 153.299,107.815 154.800 C 107.493 155.130,106.458 156.067,105.515 156.882 C 104.572 157.697,102.090 159.969,100.000 161.931 C 97.910 163.893,95.267 166.315,94.126 167.314 C 92.986 168.312,90.797 170.405,89.262 171.965 C 87.727 173.524,86.344 174.800,86.188 174.800 C 85.940 174.800,82.543 178.032,77.997 182.592 C 77.225 183.367,76.364 184.000,76.083 184.000 C 75.803 184.000,75.201 184.630,74.747 185.400 C 74.293 186.170,73.743 186.800,73.525 186.800 C 73.307 186.800,72.362 187.565,71.426 188.500 C 70.489 189.435,68.227 191.550,66.399 193.200 C 64.571 194.850,62.414 196.830,61.605 197.600 C 57.094 201.894,51.803 206.655,51.128 207.027 C 50.360 207.449,48.808 209.509,48.803 210.112 C 48.800 210.424,50.345 209.426,52.600 207.660 C 53.260 207.143,55.431 205.163,57.425 203.260 C 60.647 200.185,67.002 194.228,72.343 189.279 C 73.364 188.332,74.470 187.266,74.800 186.909 C 75.130 186.553,75.810 185.888,76.311 185.431 C 76.812 184.974,77.814 184.015,78.539 183.300 C 79.264 182.585,80.001 182.000,80.177 182.000 C 80.352 182.000,81.895 180.605,83.606 178.900 C 85.316 177.195,87.563 175.080,88.599 174.200 C 91.204 171.988,91.876 171.356,92.050 170.950 C 92.132 170.758,93.096 169.880,94.190 169.000 C 95.285 168.120,98.255 165.442,100.790 163.048 C 103.326 160.654,107.432 156.784,109.916 154.448 C 116.122 148.610,120.719 144.278,122.482 142.606 C 123.297 141.833,124.138 141.200,124.350 141.200 C 124.561 141.200,125.124 140.570,125.600 139.800 C 126.076 139.030,126.691 138.400,126.967 138.400 C 127.243 138.400,128.109 137.725,128.892 136.900 C 129.674 136.075,130.919 134.869,131.657 134.221 C 133.526 132.579,142.466 124.369,145.582 121.433 C 149.944 117.322,150.974 116.355,156.056 111.600 C 158.760 109.070,161.609 106.370,162.386 105.600 C 163.164 104.830,164.303 103.875,164.918 103.479 C 165.533 103.082,166.232 102.329,166.470 101.806 C 166.709 101.282,167.397 100.650,168.000 100.400 C 168.603 100.150,169.296 99.508,169.540 98.973 C 169.783 98.438,170.183 98.000,170.427 98.000 C 170.672 98.000,172.323 96.560,174.097 94.800 C 175.872 93.040,177.431 91.599,177.562 91.597 C 177.693 91.596,179.185 90.273,180.878 88.658 C 182.571 87.043,185.202 84.617,186.725 83.266 C 189.427 80.871,194.388 76.193,197.200 73.390 C 199.886 70.712,201.171 71.192,206.711 76.947 C 207.530 77.798,210.360 80.424,213.000 82.784 C 215.640 85.143,218.815 88.091,220.057 89.336 C 221.298 90.581,222.428 91.600,222.568 91.600 C 222.708 91.600,224.161 92.905,225.797 94.500 C 227.433 96.095,229.590 98.120,230.589 99.000 C 231.589 99.880,232.742 100.938,233.153 101.350 C 234.509 102.711,235.217 103.382,237.004 105.000 C 239.937 107.656,245.489 112.841,248.327 115.577 C 249.797 116.994,253.880 120.788,257.400 124.008 C 260.920 127.228,265.060 131.060,266.600 132.523 C 268.140 133.987,269.706 135.287,270.080 135.413 C 270.453 135.538,270.873 135.998,271.011 136.435 C 271.150 136.872,271.955 137.667,272.800 138.200 C 273.645 138.733,274.444 139.508,274.575 139.921 C 274.706 140.334,275.297 140.926,275.889 141.236 C 276.481 141.546,278.826 143.645,281.100 145.900 C 283.374 148.155,285.378 150.000,285.553 150.000 C 285.728 150.000,286.522 150.675,287.318 151.500 C 288.114 152.325,290.409 154.530,292.419 156.400 C 294.429 158.270,297.272 160.958,298.737 162.374 C 300.201 163.789,302.390 165.793,303.600 166.826 C 304.810 167.859,307.330 170.177,309.200 171.977 C 311.070 173.778,313.082 175.507,313.672 175.821 C 314.261 176.135,314.855 176.744,314.992 177.176 C 315.129 177.607,315.853 178.338,316.600 178.800 C 317.347 179.262,318.057 179.948,318.176 180.325 C 318.296 180.702,318.879 181.305,319.471 181.665 C 320.064 182.024,322.540 184.210,324.974 186.521 C 327.408 188.832,330.922 192.136,332.783 193.862 C 334.643 195.588,336.922 197.720,337.847 198.600 C 344.100 204.550,348.129 208.237,348.717 208.547 C 349.092 208.745,349.895 209.367,350.500 209.928 C 351.105 210.490,351.600 210.817,351.600 210.655 C 351.600 209.811,350.285 208.042,348.741 206.811 C 347.784 206.047,345.711 204.185,344.135 202.673 C 342.559 201.161,340.935 199.690,340.526 199.403 C 340.116 199.116,338.346 197.512,336.591 195.837 C 334.836 194.162,332.726 192.209,331.903 191.496 C 331.079 190.783,329.999 189.777,329.503 189.260 C 329.006 188.742,328.255 188.022,327.833 187.660 C 327.411 187.297,326.311 186.280,325.390 185.400 C 324.468 184.520,322.325 182.540,320.626 181.000 C 318.927 179.460,317.147 177.764,316.669 177.231 C 316.191 176.699,315.478 175.979,315.084 175.631 C 312.593 173.433,309.038 170.173,300.005 161.800 C 293.430 155.706,292.857 155.200,292.523 155.197 C 292.346 155.196,291.893 154.656,291.519 153.997 C 291.144 153.339,290.398 152.600,289.862 152.356 C 289.326 152.111,288.659 151.484,288.380 150.962 C 288.101 150.440,287.539 149.908,287.132 149.778 C 286.725 149.649,284.983 148.161,283.260 146.472 C 281.538 144.782,277.906 141.330,275.190 138.800 C 272.474 136.270,268.800 132.831,267.026 131.158 C 265.252 129.484,263.017 127.414,262.061 126.558 C 261.104 125.701,259.391 124.100,258.253 123.000 C 257.115 121.900,254.478 119.476,252.392 117.614 C 250.306 115.752,248.032 113.682,247.338 113.014 C 246.644 112.346,245.268 111.080,244.279 110.200 C 242.424 108.549,242.285 108.419,240.727 106.891 C 236.544 102.789,233.542 100.000,233.310 100.000 C 233.157 100.000,232.301 99.235,231.408 98.300 C 230.515 97.365,227.544 94.530,224.806 92.000 C 222.069 89.470,218.472 86.118,216.814 84.551 C 213.583 81.497,208.519 76.832,206.664 75.200 C 206.038 74.650,204.706 73.345,203.704 72.300 C 201.221 69.712,199.032 69.583,196.942 71.900 M281.443 109.649 C 281.854 110.392,282.395 111.270,282.645 111.600 C 282.895 111.930,283.318 112.881,283.585 113.714 C 283.861 114.572,284.532 115.511,285.136 115.882 C 285.721 116.242,286.740 117.048,287.400 117.675 C 288.060 118.302,290.080 120.206,291.890 121.907 C 293.699 123.608,297.209 126.908,299.690 129.240 C 306.238 135.396,312.648 141.368,316.391 144.800 C 318.190 146.450,320.393 148.478,321.286 149.306 C 322.179 150.134,323.289 150.889,323.754 150.983 C 326.741 151.587,327.442 151.566,328.539 150.843 C 329.991 149.886,329.385 149.659,326.069 149.917 C 323.599 150.110,323.501 150.080,322.069 148.689 C 321.261 147.905,319.070 145.834,317.200 144.086 C 315.330 142.338,312.090 139.287,310.000 137.306 C 307.910 135.326,305.210 132.851,304.000 131.809 C 302.790 130.766,301.241 129.347,300.559 128.656 C 299.876 127.965,298.590 126.770,297.700 126.000 C 296.811 125.230,294.039 122.642,291.541 120.250 C 289.044 117.857,286.585 115.625,286.077 115.289 C 285.569 114.953,284.798 114.030,284.362 113.239 C 282.225 109.356,281.759 108.643,281.247 108.477 C 280.839 108.345,280.891 108.652,281.443 109.649 M152.609 233.200 C 150.993 233.362,150.524 233.588,150.115 234.400 C 149.581 235.461,149.330 362.083,149.851 367.600 L 150.097 370.200 200.249 370.200 L 250.400 370.200 250.410 367.400 C 250.416 365.860,250.413 335.449,250.404 299.820 C 250.385 227.288,250.644 233.202,247.491 233.197 C 246.561 233.196,225.280 233.151,200.200 233.097 C 175.120 233.044,153.704 233.090,152.609 233.200 M248.720 235.280 C 249.228 235.788,249.452 364.019,248.948 365.900 C 248.794 366.474,248.397 366.802,247.853 366.806 C 246.350 366.817,245.724 367.453,246.300 368.382 C 247.031 369.563,246.985 369.600,244.800 369.600 C 242.528 369.600,242.468 369.532,243.680 368.320 L 244.560 367.440 243.290 367.111 C 241.718 366.704,156.581 366.886,156.169 367.298 C 156.005 367.461,156.170 367.925,156.536 368.329 C 157.528 369.425,157.372 369.600,155.410 369.600 C 153.634 369.600,153.622 369.590,153.860 368.400 C 154.079 367.303,153.992 367.178,152.842 366.948 C 152.150 366.810,151.491 366.547,151.378 366.364 C 151.095 365.906,151.136 235.627,151.419 235.169 C 151.788 234.573,248.123 234.683,248.720 235.280 M227.600 296.049 C 224.778 297.175,224.800 297.078,224.800 308.216 C 224.800 317.828,224.838 318.341,225.635 319.354 C 228.081 322.463,231.524 322.029,233.414 318.372 C 234.123 317.002,234.257 301.541,233.581 299.108 C 232.835 296.421,230.133 295.040,227.600 296.049 " stroke="none" fill="#f9845c" fill-rule="evenodd"></path></g></svg>